<svg width="920" height="918" viewBox="0 0 920 918" fill="none" xmlns="http://www.w3.org/2000/svg">
<g clip-path="url(#clip0_32_568)">
<g clip-path="url(#clip1_32_568)">
<g clip-path="url(#clip2_32_568)">
<g clip-path="url(#clip3_32_568)">
<g clip-path="url(#clip4_32_568)">
<g clip-path="url(#clip5_32_568)">
<g clip-path="url(#clip6_32_568)">
<g clip-path="url(#clip7_32_568)">
<path d="M546.286 399.394L527.478 302.564H557.524L588.847 399.394H546.286ZM440.753 399.394L446.975 302.564H475.847L481.791 399.394H440.753ZM335.373 399.394L366.364 302.564H396.603L377.423 399.394H335.373ZM332.838 537.804V421.507C337.003 428.844 346.477 434.846 356.604 434.846C368.124 434.846 377.36 427.075 382.802 418.417C388.236 427.075 397.619 434.846 409.144 434.846C420.664 434.846 430.124 427.075 435.553 418.417C440.986 427.075 450.478 434.846 462.007 434.846C473.527 434.846 483.041 427.075 488.479 418.417C493.907 427.075 503.425 434.846 514.941 434.846C526.471 434.846 535.989 427.075 541.431 418.417C546.864 427.075 555.804 434.846 567.334 434.846C577.465 434.846 586.921 428.844 591.087 421.507V537.804H332.838ZM652.168 399.394C652.213 399.394 652.258 398.364 652.079 397.781C651.806 396.93 651.268 396.348 650.646 395.811L607.064 297.718C606.436 295.657 604.466 294.224 602.275 294.224H321.653C319.458 294.224 317.532 295.702 316.861 297.807L273.906 395.452C272.92 396.124 272.114 396.93 271.756 398.14C271.621 398.632 271.711 399.394 271.711 399.394H271.308L271.711 404.993C272.607 416.773 285.731 434.734 303.244 434.734C306.245 434.734 307.857 434.286 312.023 446.783L312.314 631.202C320.287 631.202 437.17 631.01 437.17 631.01V586.442C437.17 571.885 448.95 560.105 463.463 560.105C470.719 560.105 477.348 563.061 482.096 567.809C486.844 572.557 489.8 579.186 489.8 586.442V631.01C489.8 631.01 597.769 630.656 611.296 630.656L611.946 446.783C616.116 434.286 617.679 434.824 620.68 434.824C638.194 434.824 651.228 416.773 652.128 404.993L652.616 399.394H652.168Z" fill="#5E1914"/>
<path d="M422.613 452.606H362.145V509.715H422.613V452.606Z" fill="#5E1914"/>
<path d="M493.719 452.606H433.251V509.715H493.719V452.606Z" fill="#5E1914"/>
<path d="M564.825 452.606H504.357V509.715H564.825V452.606Z" fill="#5E1914"/>
</g>
</g>
</g>
</g>
</g>
</g>
</g>
</g>
<path d="M164.314 462.656C164.32 467.424 163.428 471.909 161.64 476.111C159.851 480.29 157.373 483.979 154.205 487.176C151.016 490.351 147.333 492.849 143.157 494.67C138.982 496.468 134.499 497.359 129.709 497.343C124.919 497.327 120.434 496.424 116.254 494.636C112.074 492.825 108.396 490.336 105.221 487.168C102.024 484 99.526 480.329 97.7276 476.153C95.9291 471.978 95.027 467.506 95.0214 462.737C95.0157 457.947 95.9072 453.462 97.6958 449.282C99.4845 445.081 101.974 441.403 105.163 438.25C108.331 435.074 112.003 432.588 116.178 430.789C120.354 428.991 124.837 428.078 129.627 428.05C134.417 428.023 138.902 428.903 143.082 430.692C147.262 432.48 150.95 434.959 154.147 438.126C157.323 441.294 159.809 444.977 161.608 449.174C163.407 453.372 164.309 457.865 164.314 462.656Z" fill="#5E1914"/>
<path d="M187.72 340.142L178.61 359.895L117.594 331.752L126.993 311.374C129.75 305.395 133.34 300.825 137.762 297.661C142.163 294.489 147.165 292.809 152.767 292.623C158.358 292.408 164.322 293.761 170.658 296.683C177.014 299.615 181.94 303.296 185.436 307.727C188.942 312.138 190.918 317.096 191.366 322.602C191.794 328.098 190.578 333.945 187.72 340.142ZM174.812 346.978L179.442 336.938C181.586 332.29 182.494 328.024 182.166 324.14C181.818 320.246 180.329 316.764 177.697 313.696C175.046 310.618 171.307 307.967 166.481 305.741C161.694 303.533 157.279 302.424 153.237 302.414C149.204 302.385 145.632 303.471 142.521 305.673C139.409 307.875 136.828 311.201 134.776 315.65L129.884 326.256L174.812 346.978Z" fill="#5E1914"/>
<path d="M239.619 258.176L193.557 209.256L211.473 192.387C214.944 189.119 218.358 186.986 221.715 185.988C225.057 184.975 228.208 184.907 231.168 185.785C234.113 186.647 236.725 188.289 239.004 190.709C240.923 192.748 242.168 194.82 242.739 196.926C243.295 199.016 243.342 201.076 242.878 203.104C242.416 205.102 241.616 206.996 240.479 208.788L240.929 209.266C242.628 207.816 244.707 206.85 247.167 206.367C249.627 205.853 252.199 206 254.882 206.808C257.566 207.616 260.1 209.286 262.484 211.818C264.838 214.318 266.363 217.118 267.059 220.218C267.755 223.287 267.433 226.55 266.091 230.007C264.734 233.448 262.161 236.952 258.371 240.521L239.619 258.176ZM241.04 244.897L251.694 234.866C255.229 231.537 257.116 228.468 257.356 225.659C257.595 222.85 256.747 220.419 254.813 218.364C253.359 216.82 251.634 215.77 249.639 215.214C247.644 214.659 245.563 214.682 243.394 215.282C241.241 215.867 239.177 217.089 237.202 218.948L226.286 229.227L241.04 244.897ZM220.866 223.47L230.755 214.159C232.411 212.599 233.6 210.879 234.322 208.997C235.06 207.101 235.279 205.212 234.98 203.331C234.682 201.418 233.79 199.674 232.306 198.098C230.402 196.075 228.096 195.046 225.389 195.011C222.683 194.976 219.864 196.338 216.934 199.097L206.854 208.588L220.866 223.47Z" fill="#5E1914"/>
<path d="M341.2 132.643C339.699 129.902 337.451 128.222 334.457 127.605C331.454 126.967 328.171 127.378 324.609 128.836C322.058 129.881 320.018 131.189 318.487 132.761C316.948 134.313 315.948 135.999 315.488 137.818C315.039 139.609 315.176 141.385 315.897 143.146C316.502 144.624 317.368 145.758 318.496 146.549C319.643 147.332 320.933 147.855 322.365 148.12C323.809 148.356 325.288 148.447 326.803 148.394C328.309 148.321 329.732 148.188 331.07 147.994L337.789 147.086C339.972 146.76 342.276 146.585 344.7 146.561C347.125 146.537 349.506 146.839 351.842 147.466C354.179 148.092 356.304 149.184 358.218 150.74C360.151 152.288 361.69 154.459 362.834 157.252C364.276 160.775 364.646 164.275 363.943 167.753C363.26 171.224 361.522 174.453 358.727 177.441C355.953 180.42 352.137 182.905 347.279 184.894C342.623 186.8 338.293 187.711 334.287 187.625C330.281 187.54 326.762 186.535 323.728 184.61C320.686 182.665 318.297 179.861 316.562 176.2L325.974 172.345C327.076 174.518 328.572 176.092 330.46 177.067C332.361 178.015 334.462 178.442 336.764 178.35C339.079 178.23 341.44 177.677 343.849 176.69C346.501 175.605 348.689 174.224 350.414 172.549C352.15 170.845 353.309 169 353.89 167.013C354.463 165.006 354.335 162.99 353.506 160.966C352.752 159.124 351.608 157.831 350.075 157.088C348.561 156.337 346.757 155.941 344.661 155.902C342.585 155.853 340.313 155.992 337.846 156.316L329.678 157.321C324.143 158.004 319.38 157.626 315.387 156.188C311.415 154.742 308.543 151.853 306.769 147.522C305.302 143.939 304.993 140.414 305.842 136.946C306.691 133.479 308.473 130.326 311.188 127.489C313.894 124.632 317.332 122.35 321.502 120.643C325.712 118.919 329.729 118.137 333.552 118.296C337.396 118.448 340.779 119.438 343.703 121.266C346.617 123.074 348.799 125.632 350.248 128.938L341.2 132.643Z" fill="#5E1914"/>
<path d="M488.338 127.605C488.376 134.779 487.096 140.954 484.499 146.13C481.902 151.284 478.325 155.262 473.768 158.064C469.233 160.844 464.068 162.249 458.271 162.28C452.453 162.311 447.251 160.961 442.665 158.229C438.101 155.475 434.493 151.524 431.841 146.376C429.189 141.228 427.844 135.078 427.806 127.926C427.768 120.752 429.047 114.588 431.645 109.434C434.242 104.258 437.808 100.28 442.343 97.4999C446.899 94.6978 452.087 93.2814 457.905 93.2505C463.701 93.2197 468.881 94.5811 473.445 97.3348C478.031 100.066 481.65 104.006 484.303 109.154C486.955 114.28 488.3 120.43 488.338 127.605ZM478.298 127.658C478.269 122.19 477.359 117.59 475.567 113.86C473.798 110.107 471.377 107.276 468.304 105.368C465.254 103.437 461.803 102.482 457.954 102.503C454.082 102.523 450.632 103.515 447.602 105.478C444.572 107.418 442.181 110.275 440.429 114.046C438.699 117.796 437.849 122.404 437.878 127.873C437.907 133.341 438.806 137.951 440.576 141.704C442.368 145.435 444.789 148.265 447.839 150.196C450.89 152.104 454.351 153.048 458.222 153.028C462.072 153.007 465.512 152.027 468.542 150.086C471.593 148.123 473.984 145.267 475.714 141.517C477.466 137.746 478.327 133.126 478.298 127.658Z" fill="#5E1914"/>
<path d="M548.135 173.683L572.935 111.234L595.195 120.074C600.033 121.995 603.717 124.423 606.247 127.358C608.796 130.3 610.279 133.56 610.694 137.137C611.117 140.694 610.566 144.394 609.04 148.236C607.522 152.058 605.383 155.103 602.623 157.372C599.891 159.629 596.6 160.923 592.75 161.253C588.921 161.592 584.587 160.8 579.749 158.879L562.887 152.183L566.108 144.072L582.116 150.429C585.166 151.64 587.819 152.188 590.077 152.072C592.356 151.965 594.273 151.256 595.83 149.944C597.386 148.632 598.628 146.808 599.557 144.47C600.493 142.112 600.847 139.887 600.619 137.796C600.41 135.713 599.522 133.83 597.954 132.149C596.415 130.455 594.09 128.99 590.98 127.755L579.148 123.056L557.557 177.425L548.135 173.683ZM590.152 157.75L594.393 192.053L583.659 187.791L579.724 153.609L590.152 157.75Z" fill="#5E1914"/>
<path d="M698.216 182.018L651.859 230.659L644.52 223.665L690.877 175.024L698.216 182.018Z" fill="#5E1914"/>
<path d="M723.634 319.148L719.35 309.276L790.615 304.709L795.278 315.454L743.265 364.385L738.981 354.513L781.861 315.196L781.652 314.714L723.634 319.148ZM748.49 310.329L762.387 342.352L754.562 345.748L740.665 313.725L748.49 310.329Z" fill="#5E1914"/>
<path d="M756.248 461.504C756.362 456.737 757.366 452.276 759.259 448.12C761.152 443.987 763.722 440.362 766.969 437.245C770.237 434.15 773.981 431.746 778.201 430.031C782.42 428.337 786.924 427.559 791.712 427.695C796.501 427.832 800.962 428.846 805.095 430.739C809.228 432.654 812.842 435.234 815.937 438.481C819.054 441.728 821.459 445.461 823.152 449.68C824.845 453.9 825.635 458.393 825.521 463.16C825.407 467.948 824.403 472.41 822.51 476.543C820.617 480.699 818.036 484.313 814.768 487.385C811.522 490.48 807.789 492.874 803.57 494.567C799.35 496.261 794.846 497.061 790.057 496.968C785.268 496.876 780.806 495.883 776.672 493.99C772.539 492.097 768.914 489.527 765.797 486.281C762.702 483.034 760.308 479.29 758.615 475.049C756.923 470.808 756.134 466.293 756.248 461.504Z" fill="#5E1914"/>
<path d="M776.868 639.625L772.117 649.281L722.503 597.919L727.674 587.409L798.64 595.379L793.888 605.035L736.163 597.802L735.931 598.273L776.868 639.625ZM754.055 626.389L769.468 595.066L777.122 598.833L761.709 630.155L754.055 626.389Z" fill="#5E1914"/>
<path d="M640.779 695.268L685.601 745.328L678.048 752.09L633.226 702.031L640.779 695.268Z" fill="#5E1914"/>
<path d="M567.865 806.988L543.972 744.187L566.357 735.67C571.222 733.819 575.579 733.121 579.426 733.576C583.294 734.024 586.589 735.426 589.311 737.784C592.026 740.121 594.118 743.221 595.588 747.085C597.05 750.928 597.53 754.619 597.027 758.157C596.537 761.666 594.984 764.843 592.369 767.687C589.774 770.523 586.043 772.867 581.178 774.718L564.22 781.17L561.117 773.013L577.216 766.888C580.282 765.721 582.609 764.333 584.197 762.722C585.804 761.105 586.739 759.286 587.001 757.268C587.262 755.249 586.946 753.064 586.051 750.713C585.149 748.342 583.908 746.462 582.326 745.075C580.766 743.679 578.84 742.891 576.547 742.71C574.268 742.501 571.564 742.991 568.437 744.181L556.539 748.708L577.341 803.383L567.865 806.988ZM588.087 766.859L614.384 789.29L603.59 793.396L577.6 770.849L588.087 766.859Z" fill="#5E1914"/>
<path d="M483.554 788.212C483.696 795.385 482.505 801.578 479.983 806.79C477.46 811.981 473.941 816.011 469.425 818.878C464.931 821.723 459.786 823.203 453.991 823.317C448.174 823.432 442.953 822.157 438.328 819.491C433.725 816.804 430.06 812.905 427.334 807.796C424.608 802.687 423.174 796.557 423.033 789.406C422.892 782.233 424.082 776.051 426.605 770.86C429.128 765.647 432.636 761.619 437.13 758.773C441.646 755.906 446.813 754.415 452.63 754.3C458.425 754.186 463.624 755.472 468.227 758.16C472.852 760.825 476.528 764.713 479.254 769.822C481.979 774.909 483.413 781.039 483.554 788.212ZM473.517 788.41C473.409 782.943 472.432 778.357 470.587 774.652C468.764 770.926 466.302 768.13 463.203 766.266C460.124 764.38 456.661 763.475 452.812 763.55C448.941 763.627 445.505 764.668 442.504 766.674C439.502 768.659 437.153 771.549 435.456 775.345C433.78 779.119 432.996 783.74 433.104 789.207C433.212 794.674 434.177 799.271 436.001 802.998C437.846 806.703 440.308 809.498 443.386 811.385C446.464 813.249 449.938 814.143 453.808 814.067C457.657 813.991 461.083 812.961 464.084 810.976C467.108 808.97 469.457 806.079 471.133 802.305C472.83 798.509 473.625 793.877 473.517 788.41Z" fill="#5E1914"/>
<path d="M349.059 752.901C349.956 749.906 349.572 747.127 347.908 744.562C346.252 741.977 343.653 739.93 340.112 738.419C337.577 737.338 335.213 736.805 333.019 736.82C330.833 736.816 328.931 737.288 327.313 738.239C325.723 739.178 324.555 740.523 323.809 742.273C323.182 743.742 322.984 745.155 323.213 746.513C323.462 747.88 323.996 749.166 324.813 750.371C325.66 751.564 326.634 752.681 327.736 753.721C328.846 754.742 329.941 755.661 331.019 756.477L336.385 760.621C338.151 761.945 339.894 763.461 341.615 765.17C343.335 766.879 344.793 768.785 345.988 770.888C347.184 772.991 347.9 775.27 348.137 777.725C348.394 780.189 347.93 782.809 346.746 785.586C345.253 789.086 343.022 791.809 340.052 793.752C337.103 795.705 333.584 796.736 329.494 796.846C325.425 796.965 320.976 795.995 316.147 793.936C311.52 791.962 307.83 789.52 305.076 786.609C302.322 783.699 300.565 780.488 299.804 776.977C299.051 773.446 299.368 769.776 300.754 765.968L310.109 769.959C309.338 772.269 309.268 774.439 309.901 776.469C310.562 778.486 311.734 780.282 313.417 781.856C315.128 783.419 317.181 784.71 319.575 785.731C322.211 786.856 324.731 787.443 327.135 787.493C329.567 787.532 331.695 787.06 333.517 786.078C335.348 785.075 336.692 783.568 337.55 781.556C338.331 779.725 338.447 778.003 337.899 776.39C337.37 774.786 336.384 773.224 334.94 771.704C333.515 770.193 331.821 768.673 329.857 767.146L323.403 762.039C319.029 758.58 315.951 754.925 314.169 751.074C312.408 747.231 312.446 743.157 314.282 738.852C315.801 735.291 318.092 732.594 321.157 730.762C324.221 728.93 327.716 727.984 331.642 727.922C335.576 727.841 339.616 728.684 343.761 730.452C347.945 732.237 351.324 734.546 353.896 737.379C356.489 740.221 358.162 743.324 358.914 746.689C359.675 750.033 359.388 753.383 358.052 756.737L349.059 752.901Z" fill="#5E1914"/>
<path d="M189.642 702.614L237.204 655.151L254.586 672.569C257.954 675.944 260.185 679.295 261.28 682.621C262.39 685.932 262.549 689.08 261.757 692.064C260.981 695.033 259.416 697.691 257.063 700.04C255.081 702.017 253.046 703.322 250.957 703.954C248.884 704.571 246.827 704.677 244.785 704.272C242.775 703.868 240.858 703.124 239.034 702.039L238.57 702.503C240.068 704.159 241.095 706.21 241.649 708.654C242.234 711.098 242.162 713.673 241.432 716.379C240.702 719.085 239.107 721.666 236.645 724.123C234.214 726.548 231.459 728.154 228.381 728.94C225.333 729.725 222.062 729.498 218.568 728.257C215.089 727 211.512 724.529 207.834 720.845L189.642 702.614ZM202.957 703.649L213.293 714.006C216.723 717.444 219.846 719.241 222.66 719.399C225.475 719.556 227.881 718.638 229.878 716.645C231.38 715.147 232.38 713.392 232.877 711.382C233.374 709.372 233.291 707.292 232.628 705.141C231.981 703.006 230.699 700.979 228.783 699.059L218.192 688.446L202.957 703.649ZM223.789 682.86L233.384 692.475C234.99 694.085 236.745 695.224 238.646 695.891C240.563 696.573 242.458 696.738 244.33 696.384C246.232 696.03 247.95 695.089 249.483 693.559C251.449 691.597 252.411 689.263 252.367 686.556C252.324 683.849 250.88 681.071 248.038 678.223L238.258 668.422L223.789 682.86Z" fill="#5E1914"/>
<path d="M120.199 588.592L112.043 568.427L174.335 543.234L182.749 564.038C185.217 570.142 186.09 575.888 185.367 581.276C184.665 586.657 182.463 591.452 178.763 595.662C175.091 599.884 170.021 603.303 163.552 605.919C157.064 608.543 151.008 609.612 145.384 609.126C139.769 608.66 134.803 606.705 130.484 603.261C126.186 599.808 122.757 594.919 120.199 588.592ZM124.056 574.504L128.202 584.754C130.121 589.499 132.608 593.082 135.664 595.503C138.739 597.916 142.296 599.215 146.334 599.398C150.393 599.574 154.886 598.665 159.813 596.672C164.7 594.696 168.531 592.238 171.306 589.299C174.089 586.38 175.744 583.033 176.269 579.258C176.795 575.483 176.14 571.324 174.303 566.782L169.923 555.954L124.056 574.504Z" fill="#5E1914"/>
<defs>
<clipPath id="clip0_32_568">
<rect width="379.989" height="335.459" fill="white" transform="translate(271.968 294.984)"/>
</clipPath>
<clipPath id="clip1_32_568">
<rect width="381.309" height="336.979" fill="white" transform="translate(271.308 294.224)"/>
</clipPath>
<clipPath id="clip2_32_568">
<rect width="381.309" height="336.979" fill="white" transform="translate(271.308 294.224)"/>
</clipPath>
<clipPath id="clip3_32_568">
<rect width="381.309" height="336.979" fill="white" transform="translate(271.308 294.224)"/>
</clipPath>
<clipPath id="clip4_32_568">
<rect width="381.309" height="336.979" fill="white" transform="translate(271.308 294.224)"/>
</clipPath>
<clipPath id="clip5_32_568">
<rect width="381.309" height="336.979" fill="white" transform="translate(271.308 294.224)"/>
</clipPath>
<clipPath id="clip6_32_568">
<rect width="381.309" height="336.979" fill="white" transform="translate(271.308 294.224)"/>
</clipPath>
<clipPath id="clip7_32_568">
<rect width="381.309" height="336.979" fill="white" transform="translate(271.308 294.224)"/>
</clipPath>
</defs>
</svg>
