<svg width="190" height="70" viewBox="0 0 190 70" fill="none" xmlns="http://www.w3.org/2000/svg">
<g clip-path="url(#clip0_116_2371)">
<g clip-path="url(#clip1_116_2371)">
<g clip-path="url(#clip2_116_2371)">
<g clip-path="url(#clip3_116_2371)">
<g clip-path="url(#clip4_116_2371)">
<g clip-path="url(#clip5_116_2371)">
<g clip-path="url(#clip6_116_2371)">
<g clip-path="url(#clip7_116_2371)">
<path d="M40.8081 28.9059L38.9759 19.4735H41.9028L44.954 28.9059H40.8081ZM30.5278 28.9059L31.1339 19.4735H33.9464L34.5254 28.9059H30.5278ZM20.2625 28.9059L23.2814 19.4735H26.227L24.3587 28.9059H20.2625ZM20.0155 42.3888V31.0601C20.4213 31.7748 21.3441 32.3594 22.3306 32.3594C23.4529 32.3594 24.3526 31.6024 24.8827 30.759C25.412 31.6024 26.3261 32.3594 27.4487 32.3594C28.5709 32.3594 29.4925 31.6024 30.0213 30.759C30.5505 31.6024 31.4751 32.3594 32.5982 32.3594C33.7204 32.3594 34.6472 31.6024 35.1769 30.759C35.7057 31.6024 36.6329 32.3594 37.7547 32.3594C38.8778 32.3594 39.805 31.6024 40.3351 30.759C40.8643 31.6024 41.7353 32.3594 42.8583 32.3594C43.8453 32.3594 44.7664 31.7748 45.1722 31.0601V42.3888H20.0155ZM51.1223 28.9059C51.1267 28.9059 51.131 28.8056 51.1136 28.7489C51.087 28.666 51.0346 28.6092 50.974 28.5569L46.7285 19.0014C46.6675 18.8007 46.4755 18.6611 46.2621 18.6611H18.926C18.7122 18.6611 18.5246 18.8051 18.4591 19.0101L14.2748 28.522C14.1788 28.5874 14.1003 28.666 14.0654 28.7838C14.0523 28.8318 14.061 28.9059 14.061 28.9059H14.0217L14.061 29.4514C14.1483 30.5989 15.4267 32.3485 17.1327 32.3485C17.4251 32.3485 17.5821 32.3049 17.9879 33.5223L18.0163 51.487C18.7929 51.487 30.1788 51.4682 30.1788 51.4682V47.1268C30.1788 45.7088 31.3263 44.5612 32.74 44.5612C33.4468 44.5612 34.0926 44.8492 34.5551 45.3117C35.0176 45.7742 35.3056 46.42 35.3056 47.1268V51.4682C35.3056 51.4682 45.8232 51.4338 47.1409 51.4338L47.2041 33.5223C47.6103 32.3049 47.7626 32.3573 48.055 32.3573C49.761 32.3573 51.0307 30.5989 51.1184 29.4514L51.1659 28.9059H51.1223Z" fill="#5E1914"/>
<path d="M28.7607 34.0895H22.8704V39.6526H28.7607V34.0895Z" fill="#5E1914"/>
<path d="M35.6875 34.0895H29.7971V39.6526H35.6875V34.0895Z" fill="#5E1914"/>
<path d="M42.614 34.0895H36.7236V39.6526H42.614V34.0895Z" fill="#5E1914"/>
</g>
</g>
</g>
</g>
</g>
</g>
</g>
</g>
<path d="M70.2415 42.2083H63.9776V23.7235H70.3678C72.2031 23.7235 73.7796 24.0935 75.0973 24.8337C76.4211 25.5678 77.438 26.6238 78.1481 28.0017C78.8581 29.3797 79.2131 31.0284 79.2131 32.9479C79.2131 34.8734 78.8551 36.5281 78.139 37.912C77.429 39.296 76.4031 40.358 75.0612 41.0982C73.7254 41.8383 72.1188 42.2083 70.2415 42.2083ZM67.3261 39.311H70.079C71.3667 39.311 72.4407 39.0764 73.3012 38.607C74.1617 38.1317 74.8085 37.4247 75.2418 36.486C75.675 35.5413 75.8916 34.3619 75.8916 32.9479C75.8916 31.5338 75.675 30.3605 75.2418 29.4278C74.8085 28.4891 74.1677 27.7881 73.3193 27.3248C72.4769 26.8554 71.4299 26.6208 70.1783 26.6208H67.3261V39.311ZM82.3947 42.2083V23.7235H89.4709C90.8068 23.7235 91.9169 23.9341 92.8015 24.3553C93.692 24.7705 94.3569 25.3391 94.7962 26.0612C95.2414 26.7832 95.4641 27.6016 95.4641 28.5162C95.4641 29.2683 95.3197 29.9122 95.0308 30.4477C94.742 30.9772 94.3539 31.4074 93.8665 31.7384C93.3791 32.0693 92.8346 32.307 92.2328 32.4514V32.6319C92.8887 32.6681 93.5175 32.8696 94.1192 33.2367C94.727 33.5977 95.2234 34.1092 95.6085 34.7711C95.9936 35.433 96.1861 36.2332 96.1861 37.1719C96.1861 38.1287 95.9545 38.9891 95.4911 39.7533C95.0278 40.5115 94.3298 41.1102 93.3972 41.5494C92.4645 41.9887 91.2911 42.2083 89.8771 42.2083H82.3947ZM85.7433 39.4103H89.3446C90.5601 39.4103 91.4356 39.1787 91.9711 38.7153C92.5126 38.246 92.7834 37.6443 92.7834 36.9102C92.7834 36.3626 92.648 35.8692 92.3772 35.4299C92.1065 34.9847 91.7214 34.6357 91.2219 34.383C90.7225 34.1242 90.1268 33.9948 89.4348 33.9948H85.7433V39.4103ZM85.7433 31.585H89.0558C89.6334 31.585 90.1539 31.4797 90.6172 31.2691C91.0805 31.0524 91.4446 30.7486 91.7093 30.3574C91.9801 29.9603 92.1155 29.491 92.1155 28.9494C92.1155 28.2334 91.8628 27.6437 91.3573 27.1804C90.8579 26.717 90.1148 26.4854 89.128 26.4854H85.7433V31.585ZM109.145 28.805C109.061 28.0168 108.706 27.403 108.08 26.9637C107.46 26.5245 106.654 26.3049 105.661 26.3049C104.963 26.3049 104.364 26.4102 103.865 26.6208C103.365 26.8314 102.983 27.1172 102.719 27.4782C102.454 27.8392 102.318 28.2514 102.312 28.7148C102.312 29.0999 102.4 29.4338 102.574 29.7166C102.755 29.9994 102.998 30.2401 103.305 30.4387C103.612 30.6312 103.952 30.7937 104.325 30.9261C104.698 31.0585 105.074 31.1698 105.453 31.26L107.186 31.6933C107.884 31.8557 108.555 32.0754 109.199 32.3521C109.849 32.6289 110.43 32.9779 110.941 33.3991C111.459 33.8203 111.868 34.3288 112.169 34.9245C112.469 35.5202 112.62 36.2182 112.62 37.0185C112.62 38.1016 112.343 39.0553 111.789 39.8797C111.236 40.698 110.436 41.3388 109.389 41.8022C108.348 42.2595 107.087 42.4881 105.607 42.4881C104.169 42.4881 102.92 42.2655 101.861 41.8202C100.808 41.3749 99.9837 40.7251 99.388 39.8706C98.7984 39.0162 98.4794 37.9752 98.4313 36.7477H101.726C101.774 37.3916 101.972 37.9271 102.321 38.3543C102.67 38.7815 103.125 39.1004 103.684 39.311C104.25 39.5216 104.882 39.6269 105.58 39.6269C106.308 39.6269 106.946 39.5186 107.493 39.302C108.047 39.0794 108.48 38.7725 108.793 38.3814C109.106 37.9843 109.265 37.5209 109.271 36.9914C109.265 36.51 109.124 36.1129 108.847 35.8C108.57 35.4811 108.182 35.2163 107.683 35.0057C107.189 34.7891 106.612 34.5966 105.95 34.4281L103.847 33.8865C102.324 33.4954 101.121 32.9027 100.236 32.1085C99.358 31.3082 98.9187 30.2461 98.9187 28.9223C98.9187 27.8332 99.2135 26.8795 99.8032 26.0612C100.399 25.2428 101.208 24.608 102.231 24.1567C103.254 23.6994 104.412 23.4708 105.706 23.4708C107.018 23.4708 108.167 23.6994 109.154 24.1567C110.147 24.608 110.926 25.2368 111.492 26.0431C112.057 26.8434 112.349 27.764 112.367 28.805H109.145ZM132.122 32.9659C132.122 34.9576 131.749 36.6635 131.003 38.0835C130.263 39.4976 129.252 40.5807 127.971 41.3328C126.695 42.085 125.248 42.4611 123.629 42.4611C122.01 42.4611 120.56 42.085 119.279 41.3328C118.003 40.5747 116.992 39.4886 116.246 38.0745C115.506 36.6544 115.136 34.9516 115.136 32.9659C115.136 30.9742 115.506 29.2713 116.246 27.8573C116.992 26.4372 118.003 25.3511 119.279 24.599C120.56 23.8468 122.01 23.4708 123.629 23.4708C125.248 23.4708 126.695 23.8468 127.971 24.599C129.252 25.3511 130.263 26.4372 131.003 27.8573C131.749 29.2713 132.122 30.9742 132.122 32.9659ZM128.756 32.9659C128.756 31.5639 128.536 30.3815 128.097 29.4188C127.664 28.45 127.062 27.7189 126.292 27.2255C125.522 26.7261 124.634 26.4764 123.629 26.4764C122.624 26.4764 121.737 26.7261 120.966 27.2255C120.196 27.7189 119.592 28.45 119.152 29.4188C118.719 30.3815 118.502 31.5639 118.502 32.9659C118.502 34.3679 118.719 35.5533 119.152 36.5221C119.592 37.4848 120.196 38.2159 120.966 38.7153C121.737 39.2088 122.624 39.4555 123.629 39.4555C124.634 39.4555 125.522 39.2088 126.292 38.7153C127.062 38.2159 127.664 37.4848 128.097 36.5221C128.536 35.5533 128.756 34.3679 128.756 32.9659ZM135.288 42.2083V23.7235H142.22C143.64 23.7235 144.831 23.9702 145.794 24.4636C146.763 24.957 147.494 25.649 147.987 26.5395C148.487 27.4241 148.737 28.456 148.737 29.6354C148.737 30.8208 148.484 31.8497 147.978 32.7222C147.479 33.5887 146.742 34.2596 145.767 34.735C144.792 35.2043 143.595 35.439 142.175 35.439H137.238V32.659H141.724C142.554 32.659 143.234 32.5447 143.763 32.316C144.293 32.0814 144.684 31.7414 144.937 31.2961C145.196 30.8448 145.325 30.2913 145.325 29.6354C145.325 28.9795 145.196 28.4199 144.937 27.9566C144.678 27.4872 144.284 27.1322 143.754 26.8915C143.225 26.6448 142.542 26.5215 141.706 26.5215H138.637V42.2083H135.288ZM144.837 33.8324L149.414 42.2083H145.677L141.182 33.8324H144.837ZM155.168 23.7235V42.2083H151.819V23.7235H155.168ZM161.167 42.2083H157.593L164.101 23.7235H168.235L174.751 42.2083H171.177L166.24 27.5143H166.096L161.167 42.2083ZM161.285 34.9606H171.033V37.6503H161.285V34.9606Z" fill="#C02420"/>
<path d="M64.7712 45.9613L62.6789 48.2244L62.5935 48.2315L61.3765 49.541L61.3054 48.7084L63.8389 45.9613H64.7712ZM61.6825 45.9613V50.6583H60.9211V45.9613H61.6825ZM62.8354 47.6409L64.8139 50.6583H63.9172L62.2305 48.0679L62.8354 47.6409ZM68.1801 50.7295C67.8242 50.7295 67.5111 50.656 67.2407 50.5089C66.9702 50.3618 66.7591 50.1507 66.6073 49.8755C66.4602 49.5956 66.3867 49.2635 66.3867 48.8792C66.3867 48.4949 66.4602 48.1651 66.6073 47.8899C66.7591 47.61 66.9678 47.3965 67.2335 47.2494C67.4992 47.1024 67.8005 47.0288 68.1374 47.0288C68.4837 47.0288 68.7779 47.1 69.0198 47.2423C69.2618 47.3847 69.4468 47.5792 69.5749 47.8259C69.703 48.0726 69.7671 48.3525 69.7671 48.6657C69.7671 48.7511 69.7647 48.8317 69.76 48.9076C69.7552 48.9835 69.7481 49.05 69.7386 49.1069H66.8777V48.5233H69.4041L69.0269 48.6372C69.0269 48.3146 68.9463 48.0679 68.785 47.8971C68.6237 47.7215 68.403 47.6337 68.1231 47.6337C67.9191 47.6337 67.7412 47.6812 67.5894 47.7761C67.4375 47.871 67.3213 48.0133 67.2407 48.2031C67.16 48.3881 67.1197 48.6158 67.1197 48.8863C67.1197 49.152 67.1624 49.3773 67.2478 49.5624C67.3332 49.7474 67.4542 49.8874 67.6107 49.9822C67.7673 50.0771 67.9523 50.1246 68.1658 50.1246C68.403 50.1246 68.5952 50.0795 68.7423 49.9894C68.8893 49.8992 69.0056 49.7735 69.091 49.6122L69.6959 49.8968C69.6105 50.0676 69.4943 50.2171 69.3472 50.3452C69.2049 50.4685 69.0341 50.5634 68.8348 50.6299C68.6355 50.6963 68.4173 50.7295 68.1801 50.7295ZM73.6465 50.7295C73.2907 50.7295 72.9776 50.656 72.7071 50.5089C72.4367 50.3618 72.2256 50.1507 72.0738 49.8755C71.9267 49.5956 71.8531 49.2635 71.8531 48.8792C71.8531 48.4949 71.9267 48.1651 72.0738 47.8899C72.2256 47.61 72.4343 47.3965 72.7 47.2494C72.9657 47.1024 73.267 47.0288 73.6038 47.0288C73.9502 47.0288 74.2443 47.1 74.4863 47.2423C74.7283 47.3847 74.9133 47.5792 75.0414 47.8259C75.1695 48.0726 75.2336 48.3525 75.2336 48.6657C75.2336 48.7511 75.2312 48.8317 75.2264 48.9076C75.2217 48.9835 75.2146 49.05 75.2051 49.1069H72.3442V48.5233H74.8706L74.4934 48.6372C74.4934 48.3146 74.4128 48.0679 74.2515 47.8971C74.0901 47.7215 73.8695 47.6337 73.5896 47.6337C73.3856 47.6337 73.2077 47.6812 73.0559 47.7761C72.904 47.871 72.7878 48.0133 72.7071 48.2031C72.6265 48.3881 72.5862 48.6158 72.5862 48.8863C72.5862 49.152 72.6289 49.3773 72.7143 49.5624C72.7997 49.7474 72.9206 49.8874 73.0772 49.9822C73.2338 50.0771 73.4188 50.1246 73.6323 50.1246C73.8695 50.1246 74.0617 50.0795 74.2088 49.9894C74.3558 49.8992 74.4721 49.7735 74.5575 49.6122L75.1624 49.8968C75.077 50.0676 74.9608 50.2171 74.8137 50.3452C74.6713 50.4685 74.5005 50.5634 74.3013 50.6299C74.102 50.6963 73.8838 50.7295 73.6465 50.7295ZM77.5474 52.1528V47.1H78.2234L78.2804 48.0963L78.1807 47.9753C78.2377 47.7903 78.3255 47.6266 78.4441 47.4843C78.5627 47.342 78.7098 47.2305 78.8853 47.1498C79.0656 47.0692 79.2625 47.0288 79.476 47.0288C79.7654 47.0288 80.0287 47.1024 80.2659 47.2494C80.5032 47.3965 80.6906 47.6076 80.8281 47.8828C80.9657 48.1533 81.0345 48.483 81.0345 48.872C81.0345 49.2611 80.9634 49.5956 80.821 49.8755C80.6834 50.1507 80.4937 50.3618 80.2517 50.5089C80.0145 50.656 79.7488 50.7295 79.4546 50.7295C79.151 50.7295 78.8924 50.6512 78.6789 50.4946C78.4654 50.3333 78.3136 50.1293 78.2234 49.8826L78.3088 49.7616V52.1528H77.5474ZM79.2909 50.1103C79.5993 50.1103 79.8389 50.0012 80.0097 49.783C80.1853 49.5647 80.273 49.2635 80.273 48.8792C80.273 48.4949 80.1876 48.1936 80.0168 47.9753C79.846 47.7524 79.6088 47.6409 79.3052 47.6409C79.1059 47.6409 78.9304 47.693 78.7785 47.7974C78.6315 47.8971 78.5152 48.0394 78.4298 48.2244C78.3492 48.4047 78.3088 48.623 78.3088 48.8792C78.3088 49.1306 78.3492 49.3489 78.4298 49.5339C78.5105 49.7189 78.6244 49.8613 78.7714 49.9609C78.9185 50.0605 79.0917 50.1103 79.2909 50.1103ZM87.9557 46.0538V49.5908C87.9557 49.7664 88.0007 49.8945 88.0909 49.9751C88.1858 50.0558 88.3115 50.0961 88.4681 50.0961C88.5962 50.0961 88.7077 50.0771 88.8025 50.0392C88.8974 49.9965 88.9852 49.9395 89.0659 49.8684L89.2367 50.4235C89.1275 50.5184 88.9923 50.5943 88.831 50.6512C88.6744 50.7034 88.4989 50.7295 88.3044 50.7295C88.1004 50.7295 87.913 50.6963 87.7422 50.6299C87.5714 50.5634 87.4385 50.4567 87.3436 50.3096C87.2487 50.1578 87.1989 49.9609 87.1942 49.7189V46.2673L87.9557 46.0538ZM89.1797 47.1V47.6978H86.511V47.1H89.1797ZM91.285 50.6583V47.1H91.9326L92.0038 47.7405C92.0987 47.508 92.2387 47.3325 92.4237 47.2139C92.6135 47.0905 92.846 47.0288 93.1211 47.0288C93.1923 47.0288 93.2635 47.0359 93.3346 47.0502C93.4058 47.0597 93.4651 47.0763 93.5125 47.1L93.4058 47.769C93.3536 47.75 93.2943 47.7357 93.2279 47.7263C93.1662 47.712 93.0808 47.7049 92.9717 47.7049C92.8246 47.7049 92.6799 47.7452 92.5376 47.8259C92.3952 47.9018 92.2766 48.018 92.1817 48.1746C92.0916 48.3312 92.0465 48.5304 92.0465 48.7724V50.6583H91.285ZM97.5642 48.3739C97.5642 48.1367 97.4978 47.954 97.3649 47.8259C97.2368 47.693 97.0589 47.6266 96.8312 47.6266C96.6177 47.6266 96.435 47.6764 96.2832 47.7761C96.1314 47.8757 96.0199 48.037 95.9487 48.26L95.3082 47.9896C95.3984 47.7002 95.5739 47.4677 95.8349 47.2921C96.1006 47.1166 96.4422 47.0288 96.8597 47.0288C97.1443 47.0288 97.3958 47.0763 97.614 47.1712C97.8323 47.2613 98.0031 47.3989 98.1264 47.5839C98.2545 47.769 98.3186 48.0062 98.3186 48.2956V49.8826C98.3186 50.0582 98.4064 50.1459 98.5819 50.1459C98.6673 50.1459 98.7503 50.1341 98.831 50.1103L98.7883 50.637C98.6792 50.6892 98.5416 50.7153 98.3755 50.7153C98.2237 50.7153 98.0861 50.6892 97.9627 50.637C97.8441 50.58 97.7492 50.497 97.6781 50.3879C97.6117 50.274 97.5784 50.1341 97.5784 49.968V49.9182L97.735 49.9111C97.6923 50.0961 97.6045 50.2503 97.4717 50.3737C97.3389 50.4923 97.1847 50.5824 97.0091 50.6441C96.8336 50.701 96.6557 50.7295 96.4754 50.7295C96.2524 50.7295 96.0507 50.6939 95.8704 50.6227C95.6949 50.5516 95.5549 50.4448 95.4506 50.3025C95.3509 50.1554 95.3011 49.9751 95.3011 49.7616C95.3011 49.4959 95.3865 49.2777 95.5573 49.1069C95.7329 48.9361 95.9796 48.8199 96.2974 48.7582L97.6781 48.4877L97.671 49.0215L96.6675 49.2279C96.4682 49.2658 96.3188 49.3204 96.2192 49.3916C96.1195 49.4627 96.0697 49.5671 96.0697 49.7047C96.0697 49.8375 96.1195 49.9443 96.2192 50.0249C96.3235 50.1009 96.4611 50.1388 96.6319 50.1388C96.7505 50.1388 96.8644 50.1246 96.9735 50.0961C97.0874 50.0676 97.1894 50.0226 97.2795 49.9609C97.3697 49.8945 97.4385 49.8114 97.4859 49.7118C97.5381 49.6074 97.5642 49.4841 97.5642 49.3417V48.3739ZM102.449 47.0288C102.733 47.0288 102.975 47.0715 103.175 47.1569C103.379 47.2376 103.549 47.3538 103.687 47.5056C103.825 47.6575 103.929 47.8306 104 48.0252L103.281 48.3098C103.22 48.0916 103.12 47.9255 102.982 47.8117C102.85 47.693 102.674 47.6337 102.456 47.6337C102.242 47.6337 102.06 47.6836 101.908 47.7832C101.756 47.8781 101.64 48.018 101.559 48.2031C101.483 48.3881 101.445 48.6158 101.445 48.8863C101.445 49.152 101.486 49.3773 101.566 49.5624C101.647 49.7474 101.763 49.8874 101.915 49.9822C102.067 50.0771 102.247 50.1246 102.456 50.1246C102.617 50.1246 102.757 50.0985 102.876 50.0463C102.994 49.9894 103.092 49.9111 103.167 49.8114C103.248 49.7071 103.303 49.5813 103.331 49.4343L104.021 49.6691C103.955 49.8826 103.851 50.07 103.708 50.2313C103.571 50.3879 103.398 50.5112 103.189 50.6014C102.98 50.6868 102.74 50.7295 102.47 50.7295C102.119 50.7295 101.808 50.656 101.538 50.5089C101.267 50.3618 101.056 50.1507 100.904 49.8755C100.757 49.5956 100.684 49.2635 100.684 48.8792C100.684 48.4949 100.757 48.1651 100.904 47.8899C101.056 47.61 101.265 47.3965 101.531 47.2494C101.801 47.1024 102.107 47.0288 102.449 47.0288ZM109.619 47.1L108.032 48.7226L107.868 48.8365L106.751 49.9965L106.744 49.1282L108.715 47.1H109.619ZM107.021 45.4987V50.6583H106.26V45.4987H107.021ZM108.124 48.2956L109.704 50.6583H108.822L107.555 48.7297L108.124 48.2956ZM116.826 47.0288C117.172 47.0288 117.478 47.1024 117.744 47.2494C118.01 47.3965 118.216 47.61 118.363 47.8899C118.515 48.1651 118.591 48.4949 118.591 48.8792C118.591 49.2635 118.515 49.5956 118.363 49.8755C118.216 50.1507 118.01 50.3618 117.744 50.5089C117.478 50.656 117.172 50.7295 116.826 50.7295C116.48 50.7295 116.173 50.656 115.908 50.5089C115.642 50.3618 115.433 50.1507 115.282 49.8755C115.13 49.5956 115.054 49.2635 115.054 48.8792C115.054 48.4949 115.13 48.1651 115.282 47.8899C115.433 47.61 115.642 47.3965 115.908 47.2494C116.173 47.1024 116.48 47.0288 116.826 47.0288ZM116.826 47.6266C116.612 47.6266 116.43 47.6764 116.278 47.7761C116.131 47.871 116.017 48.0109 115.936 48.196C115.856 48.381 115.815 48.6087 115.815 48.8792C115.815 49.1448 115.856 49.3726 115.936 49.5624C116.017 49.7474 116.131 49.8897 116.278 49.9894C116.43 50.0842 116.612 50.1317 116.826 50.1317C117.039 50.1317 117.22 50.0842 117.367 49.9894C117.514 49.8897 117.628 49.7474 117.708 49.5624C117.789 49.3726 117.829 49.1448 117.829 48.8792C117.829 48.6087 117.789 48.381 117.708 48.196C117.628 48.0109 117.514 47.871 117.367 47.7761C117.22 47.6764 117.039 47.6266 116.826 47.6266ZM122.361 45.4489C122.508 45.4489 122.641 45.4655 122.76 45.4987C122.883 45.5272 122.975 45.5675 123.037 45.6197L122.895 46.1677C122.843 46.1345 122.783 46.1108 122.717 46.0965C122.65 46.0776 122.575 46.0681 122.489 46.0681C122.295 46.0681 122.14 46.1131 122.027 46.2033C121.917 46.2934 121.863 46.4405 121.863 46.6445V47.164L121.884 47.3562V50.6583H121.123V46.5876C121.123 46.4073 121.149 46.246 121.201 46.1037C121.258 45.9613 121.341 45.8427 121.45 45.7478C121.559 45.6482 121.69 45.5747 121.841 45.5272C121.998 45.475 122.171 45.4489 122.361 45.4489ZM123.016 47.1V47.6978H120.454V47.1H123.016ZM131.462 47.1L129.904 51.0782C129.799 51.3534 129.686 51.5716 129.562 51.7329C129.444 51.8943 129.306 52.0105 129.149 52.0817C128.993 52.1528 128.81 52.1884 128.601 52.1884C128.431 52.1884 128.272 52.1647 128.125 52.1172C127.982 52.0745 127.857 52.0152 127.747 51.9393L127.932 51.3486C128.023 51.4246 128.118 51.4815 128.217 51.5194C128.322 51.5574 128.433 51.5764 128.552 51.5764C128.68 51.5764 128.794 51.5408 128.893 51.4696C128.998 51.4032 129.09 51.268 129.171 51.064L129.327 50.6797L128.95 49.7972L127.84 47.1H128.694L129.484 49.3346L129.69 50.0036L129.925 49.2706L130.672 47.1H131.462ZM134.988 47.0288C135.334 47.0288 135.64 47.1024 135.906 47.2494C136.171 47.3965 136.378 47.61 136.525 47.8899C136.677 48.1651 136.752 48.4949 136.752 48.8792C136.752 49.2635 136.677 49.5956 136.525 49.8755C136.378 50.1507 136.171 50.3618 135.906 50.5089C135.64 50.656 135.334 50.7295 134.988 50.7295C134.641 50.7295 134.335 50.656 134.069 50.5089C133.804 50.3618 133.595 50.1507 133.443 49.8755C133.291 49.5956 133.215 49.2635 133.215 48.8792C133.215 48.4949 133.291 48.1651 133.443 47.8899C133.595 47.61 133.804 47.3965 134.069 47.2494C134.335 47.1024 134.641 47.0288 134.988 47.0288ZM134.988 47.6266C134.774 47.6266 134.591 47.6764 134.44 47.7761C134.292 47.871 134.179 48.0109 134.098 48.196C134.017 48.381 133.977 48.6087 133.977 48.8792C133.977 49.1448 134.017 49.3726 134.098 49.5624C134.179 49.7474 134.292 49.8897 134.44 49.9894C134.591 50.0842 134.774 50.1317 134.988 50.1317C135.201 50.1317 135.381 50.0842 135.528 49.9894C135.675 49.8897 135.789 49.7474 135.87 49.5624C135.951 49.3726 135.991 49.1448 135.991 48.8792C135.991 48.6087 135.951 48.381 135.87 48.196C135.789 48.0109 135.675 47.871 135.528 47.7761C135.381 47.6764 135.201 47.6266 134.988 47.6266ZM140.329 50.7295C140.097 50.7295 139.881 50.6868 139.682 50.6014C139.487 50.516 139.331 50.3784 139.212 50.1886C139.093 49.9988 139.034 49.7521 139.034 49.4485V47.1H139.796V49.2563C139.796 49.579 139.864 49.802 140.002 49.9253C140.14 50.0439 140.332 50.1032 140.578 50.1032C140.697 50.1032 140.811 50.0842 140.92 50.0463C141.034 50.0036 141.136 49.9395 141.226 49.8541C141.316 49.764 141.385 49.6501 141.432 49.5125C141.485 49.375 141.511 49.2136 141.511 49.0286V47.1H142.272V50.6583H141.603L141.568 50.0819C141.444 50.3049 141.278 50.4685 141.07 50.5729C140.861 50.6773 140.614 50.7295 140.329 50.7295ZM144.814 50.6583V47.1H145.462L145.533 47.7405C145.628 47.508 145.768 47.3325 145.953 47.2139C146.142 47.0905 146.375 47.0288 146.65 47.0288C146.721 47.0288 146.792 47.0359 146.864 47.0502C146.935 47.0597 146.994 47.0763 147.042 47.1L146.935 47.769C146.883 47.75 146.823 47.7357 146.757 47.7263C146.695 47.712 146.61 47.7049 146.501 47.7049C146.354 47.7049 146.209 47.7452 146.067 47.8259C145.924 47.9018 145.806 48.018 145.711 48.1746C145.621 48.3312 145.576 48.5304 145.576 48.7724V50.6583H144.814ZM153.011 46.5022C152.845 46.5022 152.717 46.4619 152.627 46.3812C152.541 46.2958 152.498 46.1772 152.498 46.0254C152.498 45.8736 152.541 45.7573 152.627 45.6767C152.717 45.596 152.845 45.5557 153.011 45.5557C153.172 45.5557 153.296 45.596 153.381 45.6767C153.471 45.7573 153.516 45.8736 153.516 46.0254C153.516 46.1772 153.471 46.2958 153.381 46.3812C153.296 46.4619 153.172 46.5022 153.011 46.5022ZM153.388 47.1V50.6583H152.627V47.1H153.388ZM156.971 46.0538V49.5908C156.971 49.7664 157.016 49.8945 157.106 49.9751C157.201 50.0558 157.326 50.0961 157.483 50.0961C157.611 50.0961 157.723 50.0771 157.818 50.0392C157.912 49.9965 158 49.9395 158.081 49.8684L158.252 50.4235C158.143 50.5184 158.007 50.5943 157.846 50.6512C157.689 50.7034 157.514 50.7295 157.319 50.7295C157.115 50.7295 156.928 50.6963 156.757 50.6299C156.586 50.5634 156.453 50.4567 156.359 50.3096C156.264 50.1578 156.214 49.9609 156.209 49.7189V46.2673L156.971 46.0538ZM158.195 47.1V47.6978H155.526V47.1H158.195ZM161.866 50.7295C161.51 50.7295 161.197 50.656 160.926 50.5089C160.656 50.3618 160.445 50.1507 160.293 49.8755C160.146 49.5956 160.072 49.2635 160.072 48.8792C160.072 48.4949 160.146 48.1651 160.293 47.8899C160.445 47.61 160.653 47.3965 160.919 47.2494C161.185 47.1024 161.486 47.0288 161.823 47.0288C162.169 47.0288 162.463 47.1 162.705 47.2423C162.947 47.3847 163.132 47.5792 163.261 47.8259C163.389 48.0726 163.453 48.3525 163.453 48.6657C163.453 48.7511 163.45 48.8317 163.446 48.9076C163.441 48.9835 163.434 49.05 163.424 49.1069H160.563V48.5233H163.09L162.713 48.6372C162.713 48.3146 162.632 48.0679 162.471 47.8971C162.309 47.7215 162.089 47.6337 161.809 47.6337C161.605 47.6337 161.427 47.6812 161.275 47.7761C161.123 47.871 161.007 48.0133 160.926 48.2031C160.846 48.3881 160.805 48.6158 160.805 48.8863C160.805 49.152 160.848 49.3773 160.933 49.5624C161.019 49.7474 161.14 49.8874 161.296 49.9822C161.453 50.0771 161.638 50.1246 161.851 50.1246C162.089 50.1246 162.281 50.0795 162.428 49.9894C162.575 49.8992 162.691 49.7735 162.777 49.6122L163.382 49.8968C163.296 50.0676 163.18 50.2171 163.033 50.3452C162.89 50.4685 162.72 50.5634 162.52 50.6299C162.321 50.6963 162.103 50.7295 161.866 50.7295ZM165.767 50.6583V47.1H166.443L166.478 47.6978C166.602 47.4701 166.765 47.3016 166.969 47.1925C167.178 47.0834 167.399 47.0288 167.631 47.0288C167.887 47.0288 168.122 47.0881 168.336 47.2067C168.554 47.3206 168.718 47.4938 168.827 47.7263C168.903 47.5697 169.007 47.4392 169.14 47.3348C169.273 47.2305 169.42 47.1546 169.581 47.1071C169.742 47.0549 169.901 47.0288 170.058 47.0288C170.286 47.0288 170.499 47.0763 170.698 47.1712C170.898 47.266 171.059 47.4108 171.182 47.6053C171.306 47.7998 171.367 48.0489 171.367 48.3525V50.6583H170.606V48.4735C170.606 48.1841 170.537 47.9753 170.399 47.8472C170.262 47.7191 170.086 47.6551 169.873 47.6551C169.707 47.6551 169.553 47.6954 169.41 47.7761C169.273 47.8567 169.161 47.9777 169.076 48.139C168.99 48.2956 168.948 48.4901 168.948 48.7226V50.6583H168.186V48.4735C168.186 48.1841 168.117 47.9753 167.98 47.8472C167.842 47.7191 167.667 47.6551 167.453 47.6551C167.311 47.6551 167.168 47.693 167.026 47.769C166.884 47.8449 166.765 47.9635 166.67 48.1248C166.575 48.2861 166.528 48.4996 166.528 48.7653V50.6583H165.767ZM175.226 50.7295C174.87 50.7295 174.545 50.6607 174.251 50.5231C173.957 50.3855 173.724 50.191 173.554 49.9395L174.08 49.4841C174.185 49.6786 174.334 49.8352 174.529 49.9538C174.728 50.0676 174.965 50.1246 175.24 50.1246C175.459 50.1246 175.632 50.0866 175.76 50.0107C175.888 49.9348 175.952 49.828 175.952 49.6905C175.952 49.6003 175.921 49.522 175.859 49.4556C175.803 49.3844 175.691 49.3299 175.525 49.2919L174.778 49.1354C174.398 49.0594 174.128 48.9385 173.966 48.7724C173.805 48.6016 173.724 48.3857 173.724 48.1248C173.724 47.9303 173.781 47.75 173.895 47.5839C174.009 47.4179 174.175 47.285 174.393 47.1854C174.616 47.081 174.882 47.0288 175.191 47.0288C175.546 47.0288 175.85 47.0929 176.101 47.221C176.353 47.3443 176.545 47.5222 176.678 47.7547L176.151 48.196C176.061 48.0062 175.928 47.8662 175.753 47.7761C175.577 47.6812 175.395 47.6337 175.205 47.6337C175.053 47.6337 174.922 47.6527 174.813 47.6907C174.704 47.7286 174.621 47.7808 174.564 47.8472C174.507 47.9137 174.479 47.9919 174.479 48.0821C174.479 48.177 174.514 48.26 174.586 48.3312C174.657 48.4023 174.785 48.4569 174.97 48.4949L175.781 48.6657C176.123 48.7321 176.362 48.8459 176.5 49.0073C176.642 49.1638 176.713 49.356 176.713 49.5837C176.713 49.8114 176.654 50.0131 176.536 50.1886C176.417 50.3594 176.246 50.4923 176.023 50.5872C175.8 50.682 175.535 50.7295 175.226 50.7295ZM179.797 45.9613V47.8401L179.697 49.1638H179.1L179 47.8401V45.9613H179.797ZM179.399 49.7189C179.56 49.7189 179.688 49.7664 179.783 49.8613C179.883 49.9514 179.932 50.0724 179.932 50.2242C179.932 50.376 179.883 50.497 179.783 50.5872C179.688 50.6773 179.56 50.7224 179.399 50.7224C179.242 50.7224 179.114 50.6773 179.014 50.5872C178.919 50.497 178.872 50.376 178.872 50.2242C178.872 50.0724 178.919 49.9514 179.014 49.8613C179.114 49.7664 179.242 49.7189 179.399 49.7189Z" fill="#5E1914"/>
<defs>
<clipPath id="clip0_116_2371">
<rect width="37.0156" height="32.6779" fill="white" transform="translate(14.0859 18.7351)"/>
</clipPath>
<clipPath id="clip1_116_2371">
<rect width="37.1442" height="32.8259" fill="white" transform="translate(14.0217 18.6611)"/>
</clipPath>
<clipPath id="clip2_116_2371">
<rect width="37.1442" height="32.8259" fill="white" transform="translate(14.0217 18.6611)"/>
</clipPath>
<clipPath id="clip3_116_2371">
<rect width="37.1442" height="32.8259" fill="white" transform="translate(14.0217 18.6611)"/>
</clipPath>
<clipPath id="clip4_116_2371">
<rect width="37.1442" height="32.8259" fill="white" transform="translate(14.0217 18.6611)"/>
</clipPath>
<clipPath id="clip5_116_2371">
<rect width="37.1442" height="32.8259" fill="white" transform="translate(14.0217 18.6611)"/>
</clipPath>
<clipPath id="clip6_116_2371">
<rect width="37.1442" height="32.8259" fill="white" transform="translate(14.0217 18.6611)"/>
</clipPath>
<clipPath id="clip7_116_2371">
<rect width="37.1442" height="32.8259" fill="white" transform="translate(14.0217 18.6611)"/>
</clipPath>
</defs>
</svg>
