<svg width="474" height="474" viewBox="0 0 474 474" fill="none" xmlns="http://www.w3.org/2000/svg">
<g clip-path="url(#clip0_116_3326)">
<g clip-path="url(#clip1_116_3326)">
<g clip-path="url(#clip2_116_3326)">
<g clip-path="url(#clip3_116_3326)">
<g clip-path="url(#clip4_116_3326)">
<g clip-path="url(#clip5_116_3326)">
<g clip-path="url(#clip6_116_3326)">
<g clip-path="url(#clip7_116_3326)">
<path d="M322.286 174.394L303.478 77.5639H333.524L364.847 174.394H322.286ZM216.753 174.394L222.975 77.5639H251.847L257.791 174.394H216.753ZM111.373 174.394L142.364 77.5639H172.603L153.423 174.394H111.373ZM108.838 312.804V196.507C113.003 203.844 122.477 209.846 132.604 209.846C144.124 209.846 153.36 202.075 158.802 193.417C164.236 202.075 173.619 209.846 185.144 209.846C196.664 209.846 206.124 202.075 211.553 193.417C216.986 202.075 226.478 209.846 238.007 209.846C249.527 209.846 259.041 202.075 264.479 193.417C269.907 202.075 279.425 209.846 290.941 209.846C302.471 209.846 311.989 202.075 317.431 193.417C322.864 202.075 331.804 209.846 343.334 209.846C353.465 209.846 362.921 203.844 367.087 196.507V312.804H108.838ZM428.168 174.394C428.213 174.394 428.258 173.364 428.079 172.781C427.806 171.93 427.268 171.348 426.646 170.811L383.064 72.7175C382.436 70.6571 380.466 69.2238 378.275 69.2238H97.6532C95.4584 69.2238 93.5324 70.7019 92.8605 72.8071L49.9056 170.452C48.9202 171.124 48.114 171.93 47.7557 173.14C47.6213 173.632 47.7109 174.394 47.7109 174.394H47.3077L47.7109 179.993C48.6067 191.773 61.7305 209.734 79.244 209.734C82.245 209.734 83.8575 209.286 88.0231 221.783L88.3142 406.202C96.2871 406.202 213.17 406.01 213.17 406.01V361.442C213.17 346.885 224.95 335.105 239.463 335.105C246.719 335.105 253.348 338.061 258.096 342.809C262.844 347.557 265.8 354.186 265.8 361.442V406.01C265.8 406.01 373.769 405.656 387.296 405.656L387.946 221.783C392.116 209.286 393.679 209.824 396.68 209.824C414.194 209.824 427.228 191.773 428.128 179.993L428.616 174.394H428.168Z" fill="#5E1914"/>
<path d="M198.613 227.606H138.145V284.715H198.613V227.606Z" fill="#5E1914"/>
<path d="M269.719 227.606H209.251V284.715H269.719V227.606Z" fill="#5E1914"/>
<path d="M340.825 227.606H280.357V284.715H340.825V227.606Z" fill="#5E1914"/>
</g>
</g>
</g>
</g>
</g>
</g>
</g>
</g>
<defs>
<clipPath id="clip0_116_3326">
<rect width="379.989" height="335.459" fill="white" transform="translate(47.9681 69.9838)"/>
</clipPath>
<clipPath id="clip1_116_3326">
<rect width="381.309" height="336.979" fill="white" transform="translate(47.3077 69.2238)"/>
</clipPath>
<clipPath id="clip2_116_3326">
<rect width="381.309" height="336.979" fill="white" transform="translate(47.3077 69.2238)"/>
</clipPath>
<clipPath id="clip3_116_3326">
<rect width="381.309" height="336.979" fill="white" transform="translate(47.3077 69.2238)"/>
</clipPath>
<clipPath id="clip4_116_3326">
<rect width="381.309" height="336.979" fill="white" transform="translate(47.3077 69.2238)"/>
</clipPath>
<clipPath id="clip5_116_3326">
<rect width="381.309" height="336.979" fill="white" transform="translate(47.3077 69.2238)"/>
</clipPath>
<clipPath id="clip6_116_3326">
<rect width="381.309" height="336.979" fill="white" transform="translate(47.3077 69.2238)"/>
</clipPath>
<clipPath id="clip7_116_3326">
<rect width="381.309" height="336.979" fill="white" transform="translate(47.3077 69.2238)"/>
</clipPath>
</defs>
</svg>
